<svg xmlns="http://www.w3.org/2000/svg" viewBox="0 0 1024 1024"><path d="M11.40100000000001 512a501.443 501.443 0 101002.887 0A501.443 501.443 0 1011.4 512z" fill="#F3BA4C"/><path d="M541.348 462.384a137.237 137.237 0 10-43.6 0C225.174 511.26 216.201 753.432 216.096 755.965h11.718c0-2.428 592.336-.95 592.336-.95-29.77-213.879-217.574-277.43-278.802-292.631z" fill="#FFF"/><path d="M512 1024a512 512 0 11512-512 512.528 512.528 0 01-512 512zm0-1002.887A490.887 490.887 0 101002.887 512 491.414 491.414 0 00512 21.113z" fill="#DBA02E"/></svg>